<?xml version="1.0" encoding="UTF-8"?>
<svg id="icons" xmlns="http://www.w3.org/2000/svg" version="1.1" viewBox="0 0 100 100">
  <!-- Generator: Adobe Illustrator 30.2.1, SVG Export Plug-In . SVG Version: 2.1.1 Build 1)  -->
  <defs>
    <style>
      .st0 {
        fill: #2c80ed;
      }

      .st1 {
        fill: #67a900;
      }

      .st2 {
        fill: #cb2600;
      }
    </style>
  </defs>
  <path d="M24.82,67.18v-.05c-.56,1.15-1.72,1.89-3,1.93-1.7-.03-3.09-1.36-3.2-3.06.02-.56.19-1.11.47-1.59l8.12-13-7.46-11.75c-.24-.5-.37-1.04-.38-1.6.1-1.67,1.48-2.98,3.15-3,1.38.11,2.61.93,3.24,2.16l5.3,8.78,5.31-8.74c.66-1.22,1.89-2.04,3.28-2.16,1.67,0,3.05,1.33,3.11,3-.04.54-.18,1.07-.43,1.55l-7.42,11.8,8.13,13c.27.47.43,1,.47,1.55-.12,1.67-1.48,2.99-3.15,3.06-1.27-.03-2.42-.75-3-1.88l-6.3-10.33-6.24,10.33Z"/>
  <path class="st2" d="M23.45,65.13h0c-.56,1.15-1.72,1.9-3,1.93-1.7-.04-3.09-1.37-3.2-3.06.03-.56.19-1.1.47-1.59l8.13-13-7.47-11.8c-.24-.5-.37-1.05-.38-1.61.12-1.65,1.49-2.94,3.15-2.95,1.39.1,2.62.92,3.24,2.16l5.31,8.79,5.3-8.78c.66-1.23,1.9-2.04,3.29-2.16,1.67,0,3.04,1.33,3.1,3-.03.54-.16,1.06-.39,1.55l-7.45,11.79,8.12,13c.29.49.45,1.04.47,1.6-.15,1.64-1.49,2.93-3.14,3-1.29,0-2.47-.73-3.06-1.88l-6.24-10.32-6.25,10.33Z"/>
  <path d="M76.37,68.63h-16.11c-1.8.07-3.31-1.34-3.38-3.14,0-.02,0-.04,0-.05.09-.72.31-1.43.65-2.07,4.61-7.6,8.65-14.08,13.29-21.78h-10.61c-1.7.08-3.15-1.23-3.24-2.94,0-.02,0-.04,0-.06.08-1.72,1.52-3.05,3.24-3h15.92c1.79-.1,3.33,1.27,3.43,3.06,0,.03,0,.05,0,.08-.02.72-.25,1.41-.66,2l-13.38,21.84h10.85c1.67,0,3.03,1.36,3.03,3.03s-1.36,3.03-3.03,3.03Z"/>
  <path d="M47.3,66v-10.33l-8.3-16.15c-.17-.43-.27-.89-.28-1.36.14-1.73,1.59-3.07,3.33-3.06,1.08-.04,2.1.5,2.68,1.41l5.87,11.65,5.82-11.65c.6-.92,1.64-1.45,2.73-1.41,1.74,0,3.19,1.33,3.33,3.06-.04.47-.15.93-.33,1.36l-8.15,16.15v10.33c-.08,1.77-1.56,3.15-3.33,3.1-1.77.09-3.28-1.27-3.37-3.04,0-.02,0-.04,0-.06Z"/>
  <path class="st0" d="M75,66.58h-16.11c-1.8.06-3.32-1.35-3.38-3.16,0-.01,0-.02,0-.03.09-.73.31-1.43.66-2.07,4.6-7.6,8.64-14.08,13.29-21.78h-10.62c-1.7.08-3.14-1.23-3.23-2.93,0-.02,0-.05,0-.07.05-1.73,1.49-3.1,3.23-3.05,0,0,0,0,0,0h15.93c1.79-.09,3.32,1.28,3.42,3.07,0,.02,0,.04,0,.07-.02.72-.25,1.41-.66,2l-13.38,21.9h10.85c1.66,0,3,1.34,3,3s-1.34,3-3,3v.05Z"/>
  <path class="st1" d="M45.93,63.91v-10.29l-8.26-16.15c-.18-.43-.28-.89-.29-1.36.17-1.71,1.62-3.01,3.34-3,1.08-.05,2.1.49,2.67,1.4l5.88,11.65,5.82-11.65c.59-.92,1.63-1.45,2.72-1.4,1.72-.01,3.17,1.29,3.34,3-.04.47-.15.93-.33,1.36l-8.22,16.15v10.29c-.1,1.84-1.68,3.25-3.52,3.15-1.7-.09-3.06-1.45-3.15-3.15Z"/>
</svg>